/* XPM */
static char * icons_xpm[] = {
"220 16 330 2",
"  	c None",
". 	c #FFFFFF",
"+ 	c #B08678",
"@ 	c #766059",
"# 	c #ACBBCE",
"$ 	c #6486A6",
"% 	c #003C6E",
"& 	c #9C6856",
"* 	c #543830",
"= 	c #C9BEB3",
"- 	c #FFFFB2",
"; 	c #BFB688",
"> 	c #B28A30",
", 	c #B4903D",
"' 	c #00467D",
") 	c #8CA5D2",
"! 	c #C3CEDD",
"~ 	c #6E4D25",
"{ 	c #FFFF9F",
"] 	c #8B7151",
"^ 	c #D5F3FF",
"/ 	c #BDB589",
"( 	c #AF8831",
"_ 	c #F9FAFC",
": 	c #F8F9FC",
"< 	c #F7F8FB",
"[ 	c #F5F8FB",
"} 	c #D4B269",
"| 	c #D1AD79",
"1 	c #DFDFDF",
"2 	c #ECECEC",
"3 	c #D4D4D4",
"4 	c #F7F7F7",
"5 	c #B18E3E",
"6 	c #004E8D",
"7 	c #004E8C",
"8 	c #BF9F3F",
"9 	c #FFDF5F",
"0 	c #6A9AC2",
"a 	c #FCF5A9",
"b 	c #D7E3F4",
"c 	c #578DC8",
"d 	c #F7FDFF",
"e 	c #B9B28C",
"f 	c #A8CEB7",
"g 	c #379860",
"h 	c #F8FDFF",
"i 	c #AC8732",
"j 	c #F7F8FC",
"k 	c #F6F8FC",
"l 	c #F3F6FB",
"m 	c #DABD7C",
"n 	c #D5B269",
"o 	c #D0AC79",
"p 	c #D0AC78",
"q 	c #6F6F6F",
"r 	c #000000",
"s 	c #989898",
"t 	c #1A1A1A",
"u 	c #EFEFEF",
"v 	c #AF8D3F",
"w 	c #005597",
"x 	c #9A8D73",
"y 	c #6496BF",
"z 	c #98B9D5",
"A 	c #6B9BC2",
"B 	c #F8E99B",
"C 	c #AEA48F",
"D 	c #9ABBDF",
"E 	c #3979BD",
"F 	c #B5B08E",
"G 	c #7CB87D",
"H 	c #F6FCFF",
"I 	c #677DA9",
"J 	c #7488B0",
"K 	c #8998BB",
"L 	c #9FABC7",
"M 	c #B4BBD1",
"N 	c #A88633",
"O 	c #F9F9FB",
"P 	c #F7F9FB",
"Q 	c #286296",
"R 	c #F5F7FB",
"S 	c #F2F6FB",
"T 	c #E0C88F",
"U 	c #D4B268",
"V 	c #A98533",
"W 	c #958189",
"X 	c #958188",
"Y 	c #FAE99E",
"Z 	c #F6DF96",
"` 	c #ECD18B",
" .	c #E3C17D",
"..	c #D9B271",
"+.	c #282828",
"@.	c #878787",
"#.	c #C0C0C0",
"$.	c #AB8B40",
"%.	c #F6F8FB",
"&.	c #DBE4EE",
"*.	c #4476A4",
"=.	c #FFBF3F",
"-.	c #FFFBF0",
";.	c #5D91BC",
">.	c #A0BFD8",
",.	c #6B9AC3",
"'.	c #6194BE",
").	c #F2D98C",
"!.	c #FFFCF3",
"~.	c #F5FDFF",
"{.	c #B1AE91",
"].	c #F5FCFF",
"^.	c #F6FDFF",
"/.	c #A48334",
"(.	c #F5F6FB",
"_.	c #91A5C7",
":.	c #7291B9",
"<.	c #EEF3FA",
"[.	c #EDF2F9",
"}.	c #A58434",
"|.	c #897B8D",
"1.	c #8591C8",
"2.	c #FFF1C2",
"3.	c #1F1F1F",
"4.	c #9F9F9F",
"5.	c #050505",
"6.	c #B8B8B8",
"7.	c #A68942",
"8.	c #F4F7FC",
"9.	c #5F8AB1",
"0.	c #6C94B8",
"a.	c #95B2CC",
"b.	c #F5F7FC",
"c.	c #538BB9",
"d.	c #C4D7E7",
"e.	c #8EB2D1",
"f.	c #EDC97D",
"g.	c #F4FCFF",
"h.	c #ADAB94",
"i.	c #B79440",
"j.	c #F1F5FB",
"k.	c #F0F4FA",
"l.	c #EDF2FA",
"m.	c #EDF1FA",
"n.	c #EBF1F9",
"o.	c #A08235",
"p.	c #727193",
"q.	c #FFEBB3",
"r.	c #C8C8C8",
"s.	c #030303",
"t.	c #C2C2C2",
"u.	c #727272",
"v.	c #A28743",
"w.	c #F2F5FB",
"x.	c #A2BBD3",
"y.	c #799DBE",
"z.	c #F3F5FB",
"A.	c #5080AA",
"B.	c #F3F5FA",
"C.	c #C2B4A4",
"D.	c #DF9F3F",
"E.	c #4883B5",
"F.	c #E6EEF5",
"G.	c #E9BB6F",
"H.	c #EB9186",
"I.	c #E06B5E",
"J.	c #F3FCFF",
"K.	c #A8A897",
"L.	c #F2FBFF",
"M.	c #F3FBFF",
"N.	c #C5A149",
"O.	c #F0F4FB",
"P.	c #EFF4FA",
"Q.	c #4776A5",
"R.	c #E9EFF8",
"S.	c #9C7F36",
"T.	c #636799",
"U.	c #FFE5A4",
"V.	c #0F0F0F",
"W.	c #363636",
"X.	c #9A9A9A",
"Y.	c #ABABAB",
"Z.	c #9D8445",
"`.	c #F0F5FA",
" +	c #F1F4FB",
".+	c #5D89B1",
"++	c #F1F5FA",
"@+	c #3E7BB0",
"#+	c #4E87B6",
"$+	c #1C65A2",
"%+	c #E5B165",
"&+	c #EE9E93",
"*+	c #F1FBFF",
"=+	c #A2A59B",
"-+	c #F2FCFF",
";+	c #B29242",
">+	c #EFF3FA",
",+	c #ECF1F9",
"'+	c #EAF0F9",
")+	c #E8EEF9",
"!+	c #E7EEF8",
"~+	c #967C37",
"{+	c #565F9E",
"]+	c #FFDF96",
"^+	c #5F659D",
"/+	c #60649D",
"(+	c #60649E",
"_+	c #5F649D",
":+	c #60659D",
"<+	c #C4C4C4",
"[+	c #C5C5C5",
"}+	c #F5F5F5",
"|+	c #AFAFAF",
"1+	c #6A6A6A",
"2+	c #978247",
"3+	c #EEF2FA",
"4+	c #6A92B7",
"5+	c #EDF3FA",
"6+	c #3475AC",
"7+	c #CC9965",
"8+	c #F0FBFF",
"9+	c #9EA29E",
"0+	c #F1FCFF",
"a+	c #927B38",
"b+	c #ECF1FA",
"c+	c #EBF1FA",
"d+	c #E5EDF9",
"e+	c #937B39",
"f+	c #4A5AA5",
"g+	c #FFDA89",
"h+	c #525DA2",
"i+	c #B1E1FD",
"j+	c #515CA3",
"k+	c #A0A0A0",
"l+	c #E6E6E6",
"m+	c #B7B7B7",
"n+	c #928048",
"o+	c #EAF1FA",
"p+	c #EBF0F9",
"q+	c #2A6FA8",
"r+	c #989FA2",
"s+	c #EFFBFF",
"t+	c #EEFBFF",
"u+	c #8E7739",
"v+	c #EAF1F9",
"w+	c #E9F0F9",
"x+	c #E7EFF9",
"y+	c #E6EDF8",
"z+	c #E4ECF8",
"A+	c #E2EBF8",
"B+	c #8D7739",
"C+	c #3F54AA",
"D+	c #FFD57D",
"E+	c #4556A8",
"F+	c #A9D6F8",
"G+	c #A9D5F8",
"H+	c #A9D6F9",
"I+	c #4555A8",
"J+	c #292929",
"K+	c #898989",
"L+	c #C1C1C1",
"M+	c #8E7D4A",
"N+	c #E8F0F9",
"O+	c #E8EFF9",
"P+	c #E9EFF9",
"Q+	c #2269A4",
"R+	c #949CA5",
"S+	c #93C5B2",
"T+	c #EDFBFF",
"U+	c #EEFAFF",
"V+	c #EDFAFF",
"W+	c #88763B",
"X+	c #E7EEF9",
"Y+	c #E1EAF8",
"Z+	c #89763B",
"`+	c #354EAD",
" @	c #FFD175",
".@	c #394FAD",
"+@	c #9EC5F2",
"@@	c #9DC6F2",
"#@	c #9EC6F2",
"$@	c #9DC5F2",
"%@	c #3950AC",
"&@	c #6B6B6B",
"*@	c #171717",
"=@	c #EEEEEE",
"-@	c #897A4C",
";@	c #E6EEF8",
">@	c #E6EEF9",
",@	c #8F9AA8",
"'@	c #ECFAFF",
")@	c #85733C",
"!@	c #E9F0FA",
"~@	c #E5ECF9",
"{@	c #E0E9F8",
"]@	c #84743C",
"^@	c #2E49B0",
"/@	c #2F4AB1",
"(@	c #92B5EC",
"_@	c #92B6EB",
":@	c #92B5EB",
"<@	c #92B6EC",
"[@	c #2F4AB0",
"}@	c #D8D8D8",
"|@	c #EAEAEA",
"1@	c #D0D0D0",
"2@	c #F6F6F6",
"3@	c #85784D",
"4@	c #E5ECF8",
"5@	c #E5EDF8",
"6@	c #E4EDF8",
"7@	c #8C97AA",
"8@	c #EBFBFF",
"9@	c #EBFAFF",
"0@	c #81713C",
"a@	c #EAEFF9",
"b@	c #E3ECF8",
"c@	c #E0EAF7",
"d@	c #DFE9F7",
"e@	c #DEE8F7",
"f@	c #82713C",
"g@	c #2846B3",
"h@	c #81774E",
"i@	c #8895AC",
"j@	c #7F703D",
"k@	c #7C6F3E",
"l@	c #7C703E",
"m@	c #7B703E",
"n@	c #7B7450",
"o@	c #8694AE",
". . . . . . . . . . . . . . . . . . . . . . . . . . . . . . . . . . . . + @ + . . . . . . . . . . . . . . . . . . . . . . . . . . . . . . . . . . . . . . . . . . . . . . . . . . . . . . . . . . . . . . . . . . . . . . . . . . . . . . . . . . . . . . . . . . . . . . . . . . . . . . . . . . . . . . . . . . . . . . . . . . . . . . . . . . . . . . . . . . . . . . . . . . . . . . . . . . . . . . . . . . . . . . . . . . . . . . . . . . . . . ",
". . . . # $ % . . . & * & . . . . . . . . . . . . . . . . . . . . + @ = + - + = @ + ; ; ; ; ; ; . . ; ; ; ; ; ; ; ; ; ; ; ; ; . . . ; ; ; ; ; ; ; ; ; ; ; ; ; . . . . . . . . . . . . . . . . . . . . > > > > > > > > . . . . . . . . . . . . . . . . . . . . . . . . . . . . . . . . . . . . . . . , , , , , , , , , , , , . . . . . . . . . . . . . . . . . . . . . . . . . . . . . . . . . . . . . . . . . . . . . . . . . . . . . . . . . . . . . . ",
". . ' ) ' $ ! . ~ ~ * { * ~ ~ . . . . . . . . . . . . . . . . . . @ - ] @ - @ ] - @ ^ ^ ^ ^ ^ / . . / ^ ^ ^ ^ ^ / ^ ^ ^ ^ ^ / . . . / ^ ^ ^ ^ ^ ^ ^ ^ ^ ^ ^ / . . . . . . . . . . . . . . . . . . . . ( _ _ _ : < [ } > . . . . . . . . | | | | . . . . . . . . . . 1 2 . . . . . . . . 3 4 . . . . 5 : : : : : : : : : : 5 . . . . . . . . . . . . . . . . . . . . . . . . . . . . . . . . . . . . . . . . . . . . . . . . . . . . . . . . . . . . . . ",
". . 6 7 ) . . . ~ 8 9 9 9 8 ~ . . . . . . . . 0 0 . . . . . . . . = ] a a a a a ] = ^ b c b d e . . e ^ f g f d e ^ b c b d e . . . e ^ f g f d d h d d d d e . . . . . . . . . . . . . . . . . . . . i _ : j k k l m n > . . . . . . o . . . . p . . . . . . . . q r s . . . . . . . . r t u . . . v : : : : : : : : : : v . . . . . . . . . . . . . . . . . . . . . . . . . . . . . . . . . . . . . . . . . . . . . . . . . . . . . . . . . . . . . . ",
". . w w w . . & * 9 x * x 9 * & . . . . . . y z A y . . . . . . + + @ B C @ C B @ + + D E D d F . . F ^ g G g H F ^ D E D d F . . . F ^ g G g H I J K L M d F . . . . . . . . . . . . . . . . . . . . N O P Q R R S T m U V . . W W X Y Y Z `  ...X X X X X W . . +.@.. . . . . . . . . 2 r #.. . . $.j %.&.*.Q Q Q &.j %.$.. . . . . . . . . . . . . . . . . . . . . . . . . . . . . . . . . . . . . . . . . . . . . . . . . . . . . . . . . . . . . . ",
". . . . . . . * =.=.* -.* =.=.* . . . . . ;.z >.,.'.;.. . . . . @ ).).).@ !.@ ).).).@ E E E ~.{.. . {.^ f g f ].{.^ E E E ~.{.. . . {.^ f g f ].~.^.].].^.~.{.. . . . . . . . . . . . . . . . . . . . /.P Q (.l _.:.<.[.[.}.. . |.1.2.2.2.2.2.2.2.2.2.2.2.1.|.. . 3.4.. . . . . . . . . . 5.6.. . . 7.R 8.9.Q 0.a.Q Q R b.7.. . . . . . . . . . . . . . . . . . . . . . . . . . . . . . . . . . . . . . . . . . . . . . . . . . . . . . . . . . . . . . ",
". . . & * & . & * =.x * x =.* & . . . . c.z >.d.e.,.'.c.. . . . + + @ f.C @ C f.@ + + ].g.g.g.h.. . h.^ g.g.g.g.h.^ ].g.g.g.h.. . . h.^ g.g.g.g.g.g.].g.g.g.h.. . . . . . . . . . . . . . . . . . . . i.R Q l j.k.l.m.n.n.o.. . . p.q.q.q.q.q.q.q.q.q.q.q.p.. . r.s.t.. . . . . . . . . . +.u.4 . . v.w.w.x.y.w.z.A.Q B.S v.. . . . . . . . . . . . . . . . . . . . . . . . . . . . . . . . . . . . . . . . . . . . . . . . . . . . . . . . . . . . . . ",
". ~ ~ * { * ~ C.~ 8 D.D.D.8 ~ . . . . E.z >.d.F.e.e.,.'.E.. . . . = ] G.G.G.G.G.] = ^ H.H.I.J.K.. . K.^ f g f L.K.^ H.H.I.J.K.. . . K.^ f g f L.J.J.M.M.J.J.K.. . . . . f g f d d h d d d d . . . . . N.Q w.O.P._.:.Q.R.R.S.. . . T.U.U.U.U.U.U.U.U.U.U.U.T.. . V.W.. . . . . . . . . . . X.r Y.. . Z.k.O.`. +`..+Q .+++O.Z.. . . . . . . . . . . . . . . . . . . . . . . . . . . . . . . . . . . . . . . . . . . . . . . . . . . . . . . . . . . . . . ",
". ~ 8 9 9 9 8 ~ C.~ * D.* ~ ~ . . . . @+#+#+#+#+$+$+$+$+@+. . . . @ %+] @ %+@ ] %+@ ^ H.&+I.*+=+. . =+^ g G g -+=+^ H.&+I.*+=+. . . =+^ g G g -+I J K L M *+=+. . . . . g G g H I J K L M d . . . . . ;+w.Q >+l.,+'+)+!+!+~+. . . {+]+]+^+/+(+/+/+/+_+:+_+/+^+/+<+s.[+}+|+. }+|+. }+|+. . +.1+}+. . 2+<.3+3+l..+Q 4+5+3+<.2+. . . . . . . . . . . . . . . . . . . . . . . . . . . . . . . . . . . . . . . . . . . . . . . . . . . . . . . . . . . . . . ",
"& * 9 x * x 9 * & . & * & . . . . . . . 6+#+#+#+$+$+$+6+. . . . . + @ = + 7++ = @ + ^ I.I.I.8+9+. . 9+^ f g f *+9+^ I.I.I.8+9+. . . 9+^ f g f *+8+8+8+0+8+8+9+. . . . . f g f ].~.^.].].^.~.. . . . . a+O.Q b+c+_.:.Q.d+d+e+. . . f+g+g+g+h+i+i+i+i+i+i+i+i+i+j+. 3.k+6.s.l+6.s.l+6.s.l+. s.m+. . . n+n.c+c+o+Q Q c+c+p+c+n+. . . . . . . . . . . . . . . . . . . . . . . . . . . . . . . . . . . . . . . . . . . . . . . . . . . . . . . . . . . . . . ",
"* =.=.* -.* =.=.* . . . . . . . . . . . . q+#+#+$+$+q+. . . . . . . . r++ @ + s+s+r+^ s+s+s+s+r+. . r+^ t+s+s+s+r+^ s+s+s+s+r+. . . r+^ t+s+s+s+s+s+s+s+s+s+r+. . . . . . . . . . . . . . . . . . . . u+<.Q v+w+x+y+z+A+A+B+. . . C+D+D+E+F+G+H+F+H+H+H+H+F+I+. . J+K+. 2 . . 2 . . 2 . u r L+. . . M+N+O+O+O+x.x.N+P+O+P+M+. . . . . . . . . . . . . . . . . . . . . . . . . . . . . . . . . . . . . . . . . . . . . . . . . . . . . . . . . . . . . . ",
"& * =.x * x =.* & . . w w w . . . . . . . . Q+#+$+Q+. . . . . . . . . R+^ S+g S+T+R+^ b c b U+R+. . R+^ S+g S+T+R+^ b c b U+R+. . . R+^ f g f T+U+U+V+U+V+U+R+. . . . . . . . . . . . . . . . . . . . W+b+p+Q X+_.:.Q.Y+Y+Z+. . . `+ @.@+@+@@@#@+@#@$@#@#@%@. . . &@r X.. . . . . . . . s.*@=@. . . -@;@>@;@X+Q Q ;@>@>@>@-@. . . . . . . . . . . . . . . . . . . . . . . . . . . . . . . . . . . . . . . . . . . . . . . . . . . . . . . . . . . . . . ",
". ~ 8 D.D.D.8 ~ . . . ) 7 6 . . . . . . . . . $+$+. . . . . . . . . . ,@^ g G g V+,@^ D E D '@,@. . ,@^ g G g V+,@^ D E D '@,@. . . ,@^ g G g V+I J K L M '@,@. . . . . . . . . . . . . . . . . . . . )@!@)+!+~@z+A+Y+{@{@]@. . . ^@/@(@(@_@:@<@:@_@(@_@[@. . . . . }@|@. . . . . . . . 1@2@. . . . 3@4@5@5@z+d+d+d+5@6@z+3@. . . . . . . . . . . . . . . . . . . . . . . . . . . . . . . . . . . . . . . . . . . . . . . . . . . . . . . . . . . . . . ",
". ~ ~ * D.* ~ ~ . ! $ ' ) ' . . . . . . . . . . . . . . . . . . . . . 7@^ S+g S+8@7@^ E E E '@7@. . 7@^ S+g S+8@7@^ E E E '@7@. . . 7@^ f g f 8@9@'@8@9@8@'@7@. . . . . . . . . . . . . . . . . . . . 0@a@y+~@b@A+c@d@e@e@f@. . . . g@g@g@g@g@g@g@g@g@g@. . . . . . . . . . . . . . . . . . . . . . h@b@b@b@b@b@b@b@b@b@b@h@. . . . . . . . . . . . . . . . . . . . . . . . . . . . . . . . . . . . . . . . . . . . . . . . . . . . . . . . . . . . . . ",
". . . & * & . . . % $ # . . . . . . . . . . . . . . . . . . . . . . . i@^ 9@9@9@9@i@^ 9@9@9@9@i@. . i@^ 9@9@9@9@i@^ 9@9@9@9@i@. . . i@^ 9@9@9@9@9@9@9@9@9@9@i@. . . . . . . . . . . . . . . . . . . . j@k@l@l@m@l@m@l@k@k@j@. . . . . . . . . . . . . . . . . . . . . . . . . . . . . . . . . . . . n@n@n@n@n@n@n@n@n@n@n@n@. . . . . . . . . . . . . . . . . . . . . . . . . . . . . . . . . . . . . . . . . . . . . . . . . . . . . . . . . . . . . . ",
". . . . . . . . . . . . . . . . . . . . . . . . . . . . . . . . . . . o@o@o@o@o@o@o@o@o@o@o@o@o@. . o@o@o@o@o@o@o@o@o@o@o@o@o@. . . o@o@o@o@o@o@o@o@o@o@o@o@o@. . . . . . . . . . . . . . . . . . . . . . . . . . . . . . . . . . . . . . . . . . . . . . . . . . . . . . . . . . . . . . . . . . . . . . . . . . . . . . . . . . . . . . . . . . . . . . . . . . . . . . . . . . . . . . . . . . . . . . . . . . . . . . . . . . . . . . . . . . . . . "};
